<?xml version="1.0" encoding="utf-8"?>
<!-- Generator: Adobe Illustrator 27.4.0, SVG Export Plug-In . SVG Version: 6.00 Build 0)  -->
<svg role="img" aria-label="Instagram" xmlns="http://www.w3.org/2000/svg" viewBox="0 0 60 60">
<defs><style>.st0{fill:#c24524;}</style></defs>
<g>
	<path class="st0" d="M36.16,18.59H23.84c-2.89,0-5.25,2.35-5.25,5.25v12.33c0,2.89,2.35,5.25,5.25,5.25h12.33
		c2.89,0,5.25-2.35,5.25-5.25V23.84C41.41,20.94,39.06,18.59,36.16,18.59z M30,37.36c-4.06,0-7.36-3.3-7.36-7.36
		c0-4.06,3.3-7.36,7.36-7.36c4.06,0,7.37,3.3,7.37,7.36C37.36,34.06,34.06,37.36,30,37.36z M37.69,24.16
		c-0.94,0-1.69-0.76-1.69-1.69c0-0.94,0.76-1.69,1.69-1.69c0.94,0,1.69,0.76,1.69,1.69C39.39,23.4,38.63,24.16,37.69,24.16z"/>
	<path class="st0" d="M30,24.89c-2.82,0-5.11,2.29-5.11,5.11c0,2.82,2.29,5.11,5.11,5.11c2.82,0,5.12-2.29,5.12-5.11
		C35.11,27.18,32.82,24.89,30,24.89z"/>
	<path class="st0" d="M30,0C13.43,0,0,13.43,0,30c0,16.57,13.43,30,30,30c16.57,0,30-13.43,30-30C60,13.43,46.57,0,30,0z
		 M43.66,36.16c0,4.13-3.36,7.5-7.5,7.5H23.84c-4.13,0-7.5-3.36-7.5-7.5V23.84c0-4.13,3.36-7.5,7.5-7.5h12.33
		c4.13,0,7.5,3.36,7.5,7.5V36.16z"/>
</g>
</svg>
