<?xml version="1.0" encoding="utf-8"?>
<!-- Generator: Adobe Illustrator 27.4.0, SVG Export Plug-In . SVG Version: 6.00 Build 0)  -->
<svg role="img" aria-label="LINE" xmlns="http://www.w3.org/2000/svg" viewBox="0 0 60 60">
<defs><style>.st0{fill:#222222;}</style></defs>
<g>
	<path class="st0" d="M23,29.98h-2v-5c0-0.55-0.45-1-1-1s-1,0.45-1,1v6c0,0.55,0.45,1,1,1h3c0.55,0,1-0.45,1-1S23.55,29.98,23,29.98
		z"/>
	<path class="st0" d="M33,23.98c-0.55,0-1,0.45-1,1v3l-2.19-3.58c-0.21-0.3-0.52-0.43-0.82-0.42c-0.5,0.01-0.99,0.39-0.99,1v6
		c0,0.55,0.45,1,1,1s1-0.45,1-1V28.1l2.19,3.46c0.57,0.79,1.81,0.39,1.81-0.58v-6C34,24.43,33.55,23.98,33,23.98z"/>
	<path class="st0" d="M26,23.98c-0.55,0-1,0.45-1,1v6c0,0.55,0.45,1,1,1s1-0.45,1-1v-6C27,24.43,26.55,23.98,26,23.98z"/>
	<path class="st0" d="M30,0C13.43,0,0,13.43,0,30c0,16.57,13.43,30,30,30c16.57,0,30-13.43,30-30C60,13.43,46.57,0,30,0z
		 M41.78,35.28c-1.57,1.78-4.12,3.74-6.47,5.36c-2.35,1.6-4.51,2.86-5.31,3.19c-0.32,0.13-0.56,0.19-0.75,0.19
		c-0.66,0-0.6-0.7-0.55-0.99c0.04-0.22,0.22-1.26,0.22-1.26c0.05-0.37,0.1-0.96-0.05-1.33c-0.17-0.41-0.84-0.62-1.33-0.72
		C20.34,38.78,15,33.83,15,27.93c0-6.59,6.73-11.95,15-11.95c8.27,0,15,5.36,15,11.95C45,30.56,43.96,32.94,41.78,35.28z"/>
	<path class="st0" d="M39,25.98c0.55,0,1-0.45,1-1s-0.45-1-1-1h-3c-0.55,0-1,0.45-1,1v6c0,0.55,0.45,1,1,1h3c0.55,0,1-0.45,1-1
		s-0.45-1-1-1h-2v-1h2c0.55,0,1-0.45,1-1s-0.45-1-1-1h-2v-1H39z"/>
</g>
</svg>
