<?xml version="1.0" encoding="utf-8"?>
<!-- Generator: Adobe Illustrator 27.4.0, SVG Export Plug-In . SVG Version: 6.00 Build 0)  -->
<svg role="img" aria-label="Pinterest" xmlns="http://www.w3.org/2000/svg" viewBox="0 0 60 60">
<defs><style>.st0{fill:#c24524;}</style></defs>
<path class="st0" d="M30,0C13.43,0,0,13.43,0,30s13.43,30,30,30s30-13.43,30-30S46.57,0,30,0z M30,43.73c-1.36,0-2.67-0.2-3.91-0.57
	c0.52-0.83,1.1-1.89,1.39-2.96c0.17-0.61,0.97-3.79,0.97-3.79c0.48,0.91,1.88,1.72,3.37,1.72c4.44,0,7.45-4.05,7.45-9.46
	c0-4.09-3.47-7.91-8.74-7.91c-6.56,0-9.87,4.7-9.87,8.62c0,2.37,0.9,4.49,2.83,5.27c0.31,0.13,0.6,0,0.69-0.35
	c0.06-0.24,0.22-0.86,0.28-1.11c0.09-0.35,0.06-0.47-0.2-0.77c-0.56-0.66-0.91-1.5-0.91-2.71c0-3.49,2.61-6.61,6.8-6.61
	c3.71,0,5.75,2.27,5.75,5.29c0,3.98-1.76,7.34-4.38,7.34c-1.44,0-2.52-1.19-2.18-2.66c0.42-1.75,1.22-3.64,1.22-4.9
	c0-1.13-0.61-2.07-1.86-2.07c-1.48,0-2.66,1.53-2.66,3.57c0,1.3,0.44,2.18,0.44,2.18s-1.51,6.4-1.78,7.52
	c-0.25,1.05-0.28,2.21-0.24,3.17c-4.87-2.13-8.27-6.99-8.27-12.64c0-7.63,6.18-13.81,13.81-13.81c7.62,0,13.81,6.18,13.81,13.81
	C43.81,37.55,37.63,43.73,30,43.73z"/>
</svg>
