<?xml version="1.0" encoding="utf-8"?>
<!-- Generator: Adobe Illustrator 27.4.0, SVG Export Plug-In . SVG Version: 6.00 Build 0)  -->
<svg role="img" aria-label="Twitter" xmlns="http://www.w3.org/2000/svg" viewBox="0 0 60 60">
<defs><style>.st0{fill:#222222;}</style></defs>
<path class="st0" d="M30,0C13.43,0,0,13.43,0,30s13.43,30,30,30c16.57,0,30-13.43,30-30S46.57,0,30,0z M41,24.36
	c0.01,0.24,0.01,0.49,0.01,0.73c0,7.5-5.71,16.14-16.15,16.14c-3.2,0-6.19-0.94-8.7-2.55c0.44,0.05,0.9,0.08,1.35,0.08
	c2.66,0,5.11-0.91,7.05-2.43c-2.48-0.04-4.58-1.69-5.3-3.94c0.34,0.07,0.7,0.1,1.06,0.1c0.52,0,1.02-0.07,1.5-0.2
	c-2.6-0.52-4.55-2.81-4.55-5.56v-0.07c0.77,0.42,1.64,0.68,2.57,0.71c-1.52-1.02-2.53-2.76-2.53-4.72c0-1.04,0.28-2.01,0.77-2.85
	c2.8,3.44,6.98,5.69,11.7,5.93c-0.1-0.42-0.15-0.85-0.15-1.29c0-3.13,2.54-5.67,5.67-5.67c1.63,0,3.11,0.69,4.14,1.79
	c1.29-0.25,2.51-0.73,3.6-1.38c-0.42,1.32-1.32,2.44-2.49,3.14c1.15-0.14,2.24-0.44,3.26-0.89C43.07,22.56,42.11,23.56,41,24.36z"/>
</svg>
