<?xml version="1.0" encoding="utf-8"?>
<!-- Generator: Adobe Illustrator 27.4.0, SVG Export Plug-In . SVG Version: 6.00 Build 0)  -->
<svg role="img" aria-label="Youtube" xmlns="http://www.w3.org/2000/svg" viewBox="0 0 60 60">
<defs><style>.st0{fill:#c24524;}</style></defs>
<g>
	<path class="st0" d="M30,0C13.43,0,0,13.43,0,30c0,16.57,13.43,30,30,30c16.57,0,30-13.43,30-30C60,13.43,46.57,0,30,0z M45,35.36
		c0,5.17-5.17,5.17-5.17,5.17H20.17C15,40.53,15,35.36,15,35.36V24.64c0-5.17,5.17-5.17,5.17-5.17h19.66c5.17,0,5.17,5.17,5.17,5.17
		V35.36z"/>
	<polygon class="st0" points="26,35.78 35.82,30.01 26,24.24 	"/>
</g>
</svg>
