<?xml version="1.0" encoding="utf-8"?>
<!-- Generator: Adobe Illustrator 27.4.0, SVG Export Plug-In . SVG Version: 6.00 Build 0)  -->
<svg role="img" aria-label="Facebook" xmlns="http://www.w3.org/2000/svg" viewBox="0 0 60 60">
<defs><style>.st0{fill:#c24524;}</style></defs>
<path class="st0" d="M30,0C13.43,0,0,13.43,0,30c0,16.57,13.43,30,30,30c16.57,0,30-13.43,30-30C60,13.43,46.56,0,30,0z M36.1,25.32
	l-0.32,4.13h-4.23v14.35h-5.35V29.46h-2.85v-4.13h2.85v-2.77c0-1.22,0.03-3.11,0.92-4.28c0.94-1.24,2.22-2.08,4.43-2.08
	c3.6,0,5.12,0.51,5.12,0.51l-0.71,4.23c0,0-1.19-0.34-2.3-0.34c-1.11,0-2.1,0.4-2.1,1.51v3.22H36.1z"/>
</svg>
