<?xml version="1.0" encoding="utf-8"?>
<!-- Generator: Adobe Illustrator 27.4.0, SVG Export Plug-In . SVG Version: 6.00 Build 0)  -->
<svg role="img" aria-label="TikTok" xmlns="http://www.w3.org/2000/svg" viewBox="0 0 60 60">
<defs><style>.st0{fill:#222222;}</style></defs>
<path class="st0" d="M30,0C13.43,0,0,13.43,0,30c0,16.57,13.43,30,30,30c16.57,0,30-13.43,30-30C60,13.43,46.57,0,30,0z
	 M41.69,27.39c-0.22,0.02-0.45,0.03-0.67,0.03c-2.55,0-4.8-1.31-6.1-3.3c0,5.21,0,11.13,0,11.23c0,4.58-3.72,8.3-8.3,8.3
	c-4.58,0-8.3-3.72-8.3-8.3c0-4.58,3.72-8.3,8.3-8.3c0.17,0,0.34,0.02,0.51,0.03v4.09c-0.17-0.02-0.34-0.05-0.51-0.05
	c-2.34,0-4.24,1.9-4.24,4.24c0,2.34,1.9,4.24,4.24,4.24s4.41-1.84,4.41-4.18c0-0.09,0.04-19.07,0.04-19.07h3.91
	c0.37,3.49,3.19,6.25,6.72,6.51V27.39z"/>
</svg>
