<?xml version="1.0" encoding="UTF-8"?>
<svg class="o-logo" role="img" aria-label="古民家再生・販売 ふるさと企画" xmlns="http://www.w3.org/2000/svg" viewBox="0 0 400 76.29">
  <defs><style>.cls-1{fill:#222;}</style></defs>
  <path class="cls-1" d="m133.63,54.53c-4.64-2.37-7.75-2.42-10.42-2.52l-.1,1.19c1.93.44,4.44,1.09,7.26,3.36,3.16,2.57,4.64,6.42,4.74,6.77l.94,2.52c.89,2.47,1.63,2.96,2.47,2.96,1.43,0,2.86-1.19,2.86-3.65,0-3.51-3.26-8.35-7.75-10.62Z"/>
  <path d="m118.07,51.22c-1.63-1.53-2.62-2.86-2.62-4.15,0-1.43,1.53-2.96,3.41-4.1,2.22-1.28,3.31-1.63,6.32-1.83.84-.05,2.52-.15,2.52-1.53,0-1.24-2.91-4.3-4.15-4.3-.49,0-1.33.35-1.58.45-.84.39-1.38.54-2.82.54-4.99,0-6.42-2.32-7.61-4.59l-1.19.49c1.43,5.19,2.02,7.46,7.46,8.25-2.72,2.72-5.68,5.73-5.68,9.23,0,2.03,1.28,3.61,3.41,5.83,5.43,5.73,6.62,6.96,6.62,9.14,0,1.58-1.23,3.16-2.86,3.16-.89,0-2.42-.54-3.26-.89l-7.16-2.77-.54,1.04c1.63.89,5.53,2.96,7.16,4.94.59.69.59.99.59,2.52,0,.84.2,1.33,1.73,1.33,1.28,0,3.95-.59,5.98-1.93,3.06-2.08,3.95-5.83,3.95-7.7,0-.64-.1-1.73-.79-3.26-1.19-2.62-2.27-3.7-8.89-9.88Z"/>
  <path class="cls-1" d="m114.37,56.6l-.84-.99-2.12,1.38c-.25.2-3.56,2.42-6.57,4.64-2.22,1.63-3.16,2.27-3.9,2.27-.99,0-1.14-1.09-1.14-1.83,0-1.04.25-2.07.44-2.86l-1.43-.3c-.64,1.93-1.33,4.1-1.33,5.93,0,3.95,2.62,6.96,4.15,6.96.69,0,.79-.25,1.78-2.27,3.06-6.27,8.2-10.62,10.96-12.94Z"/>
  <path class="cls-1" d="m183.51,51.56c-2.67-1.83-6.12-2.27-8.3-2.27-5.38,0-9.68,2.12-11.41,3.01,1.23-1.19,2.72-2.57,3.7-3.51l6.57-6.12c2.42-2.27,3.65-3.41,5.09-3.75.54-.15.94-.3.94-.79,0-1.04-2.91-4.15-4.15-4.15-.25,0-.44.1-.94.39-.54.35-.99.64-2.91.94-1.58.3-9.73,1.38-11.01,1.38-2.07,0-2.72-.49-3.65-2.67l-1.19.35c.2,1.53.4,2.96,1.58,4.64,1.14,1.63,2.91,2.86,3.61,2.86.3,0,.4-.1,1.58-.99.3-.25,1.58-.84,2.62-1.18.94-.3,5.83-1.53,6.91-1.88-2.47,2.86-3.51,4.05-8.1,8.74-5.28,5.38-7.36,7.26-11.9,10.86-1.28.99-1.53,1.19-1.53,2.08,0,1.43,1.28,4,2.57,4,.54,0,1.04-.3,1.28-.69,1.09-1.53,1.19-1.63,3.65-4.3,3.11-3.41,9.93-6.86,15.21-6.86,1.83,0,4,.54,5.53,1.58,2.27,1.53,2.86,4.1,2.86,6.27s-.59,4.39-1.83,6.32c-.84,1.33-1.68,2.07-3.61,3.21-.1-1.04-.2-1.73-1.43-3.16-1.38-1.58-4.54-4.3-9.63-4.3s-5.88,3.7-5.88,4.89c0,2.07,1.28,7.01,11.61,7.01,7.11,0,16.25-2.67,16.25-13.04,0-2.86-.74-6.62-4.1-8.89Zm-14.37,19.21c-4.1,0-7.26-1.73-7.26-4,0-1.28,1.14-2.12,2.72-2.12,2.17,0,4.89,1.73,7.46,4.99.15.2.4.44.64.69-1.04.25-2.12.44-3.56.44Z"/>
  <path class="cls-1" d="m233.43,37.68c-.3,0-.4.05-1.14.69-1.19.94-5.93,2.17-8.05,2.72-1.14-3.16-1.14-3.65-1.14-5.73,0-.69,0-1.33-1.43-2.07-1.09-.54-3.46-.99-6.12-.99-.99,0-2.72.1-3.01.15l-.05,1.09c3.46.64,4.59,1.33,5.73,4.1l1.23,2.96c.1.3.15.39.64,1.43-2.62.44-4.69.84-7.51,1.09-.25.05-2.52.25-3.56.25-3.31,0-4.44-1.58-5.48-3.01l-.99.39c1.43,3.41,2.77,6.37,7.36,6.37,2.32,0,6.52-.49,11.95-1.38.44.74,1.38,2.52,1.83,3.31l1.88,3.36,1.63,3.01c-1.98-.4-4.64-.99-8.59-.99-8.64,0-14.37,3.61-14.37,9.58,0,1.68.4,4.64,3.95,6.86,2.27,1.38,5.33,2.22,12.25,2.22,3.31,0,9.14-.15,12.25-.79.59-.15,2.02-.59,2.02-1.93s-2.57-3.9-3.7-3.9c-.25,0-.59.15-.64.2-1.09.54-1.23.59-2.27.74l-2.02.3c-2.32.35-4.54.45-6.17.45-6.07,0-12-1.09-12-5.38,0-4.69,5.48-6.37,10.57-6.37,1.88,0,4.2.25,6.57.99,2.86.94,3.36,1.48,4.49,2.87,1.04,1.23,1.53,1.48,1.93,1.48,1.14,0,2.77-1.98,2.77-4.49,0-.79-.1-1.19-.74-1.93l-1.38-1.53c-1.83-2.12-3.95-5.19-6.07-8.89,2.22-.49,3.85-.84,9.04-2.37,1.53-.44,2.47-.69,2.47-1.68,0-1.18-3.06-3.16-4.1-3.16Z"/>
  <path class="cls-1" d="m285.58,66.58s-1.63.59-1.93.64c-2.52.64-8,.74-10.82.74-5.48,0-13.33-.2-13.33-5.48,0-7.8,19.95-11.56,25.83-11.75l1.88-.1c.94,0,1.58-.35,1.58-1.24,0-2.07-3.46-4.54-4.54-4.54-.35,0-.4.05-1.04.59-.4.3-.69.4-1.83.79l-7.06,2.52c-.44.15-1.78.64-2.32.89-.74-1.48-.74-3.31-.74-3.7,0-.99,0-6.03.79-8.2.05-.25.84-1.28.84-1.58,0-1.58-2.47-2.22-3.56-2.52-1.63-.39-2.07-.39-6.17-.44v1.14c2.77.54,3.46.84,3.46,3.41,0,1.09-.2,6.42-.2,7.61,0,3.65,1.33,4.84,2.27,5.73-5.93,2.77-12.59,6.22-12.59,12.94,0,2.57,1.19,6.96,7.41,8.25,2.91.64,6.62.99,12.74.99,3.06,0,8.99-.05,11.66-.64.44-.15,1.63-.44,1.63-1.83,0-2.47-3.61-4.2-3.95-4.2Z"/>
  <path class="cls-1" d="m327.21,34.57c.49-.1,1.68-.25,1.68-1.14,0-.4-.4-.84-1.48-1.04l-6.42-1.04c-3.51,7.41-8.79,15.41-18.32,22.32l.69.99c7.41-3.75,13.38-8.2,17.73-13.24.4-.45,4.3-5.33,5.14-6.32,4.25,9.53,8.59,13.53,18.12,18.22,1.14-3.21,1.98-3.75,3.95-4.25l.25-1.09-2.22-.74c-4.4-1.48-13.09-4.35-19.11-12.69Z"/>
  <path class="cls-1" d="m339.31,72.35h-10.37v-14.57h12.59v-1.14l-4.59-3.65-3.01,3.46h-4.99v-7.51c1.63-.79,2.02-.99,2.02-1.53,0-.49-.79-.74-1.28-.79l-6.42-.74v26.47h-6.77v-16.4c1.58-.69,1.78-.79,1.78-1.28,0-.54-.74-.69-1.23-.74l-5.98-.59v19.01h-6.91l.59,1.33h42.42v-1.04l-4.84-4.05-3.01,3.75Z"/>
  <path class="cls-1" d="m397.93,42.72l-5.93-.64v27.21h-28.74v-24.59c1.28-.49,1.88-.74,1.88-1.33,0-.49-.79-.69-1.14-.74l-5.83-.64v33.34l5.09-.89v-3.8h28.74v4.3l5.19-.89v-29.24c1.18-.49,1.93-.74,1.93-1.33,0-.44-.69-.69-1.18-.74Z"/>
  <path class="cls-1" d="m395.06,31.86l-2.62,3.31h-37.34l.89,1.33h18.96v7.7h-3.11l-5.29-2.77v25.43l4.79-.74v-2.96h12.2v3.06l4.99-.84v-18.87c.99-.49,1.53-.79,1.53-1.28,0-.45-.59-.84-.84-.99l-4.4-2.77-1.97,2.72h-2.91v-7.7h20.05v-1.19l-4.94-3.46Zm-20.1,29.98h-3.61v-7.85h3.61v7.85Zm0-9.19h-3.61v-7.11h3.61v7.11Zm8.59,9.19h-3.61v-7.85h3.61v7.85Zm0-16.3v7.11h-3.61v-7.11h3.61Z"/>
  <path class="cls-1" d="m104.34,6.32v3.32h-3.44c-.73,0-1.06-.02-1.49-.07.05.48.09.98.09,1.58v4.84c0,.71-.04,1.3-.11,1.83h1.81v-.99h8.35v.99h1.79c-.07-.48-.11-1.06-.11-1.83v-4.84c0-.69.02-1.12.09-1.58-.41.05-.73.07-1.49.07h-3.74v-3.32h5.13c.69,0,1.37.04,2,.11v-1.77c-.53.07-1.22.11-2,.11h-5.13v-1.56c0-.73.04-1.14.12-1.6h-1.99c.09.44.11.81.11,1.6v1.56h-4.79c-.78,0-1.47-.04-2-.11v1.77c.57-.07,1.21-.11,2-.11h4.79Zm5.2,4.86v4.12h-8.34v-4.12h8.34Z"/>
  <path class="cls-1" d="m116.73,16.11l.37,1.76c.27-.07.66-.16,1.31-.28,2.96-.6,4.36-.96,6.99-1.77l-.02-1.56c-2.06.62-3.26.94-5.07,1.31v-4.17l4.75-.03c.48,1.51,1.06,2.66,1.9,3.8,1.17,1.56,2.66,2.63,3.71,2.63.76,0,1.24-.46,1.63-1.61.14-.44.18-.62.37-1.81-.64-.27-.85-.39-1.44-.89-.2,1.7-.43,2.48-.75,2.48-.34,0-1.14-.53-1.74-1.19-.9-.99-1.61-2.18-2.02-3.42l3.44-.03h.27c.66,0,1.22.02,1.79.07v-1.69c-.5.09-.98.11-2.08.12l-3.81.04c-.18-.85-.23-1.21-.3-2.11h2.98c.78,0,1.31.02,1.86.05-.04-.35-.05-.78-.05-1.51v-2.06c0-.87,0-1.17.05-1.6-.55.07-1.08.09-1.92.09h-8.27c-.99,0-1.49-.02-2.11-.09.05.66.09,1.17.09,2.09v11.16c-1.06.16-1.47.21-1.95.23Zm3.58-11.96h8.94v2.18h-8.94v-2.18Zm0,3.58h4.12c.07.71.18,1.45.3,2.13l-4.42.04v-2.16Z"/>
  <path class="cls-1" d="m137.23,6.8h1.61v-2.25h11.95v2.25h1.61c-.05-.39-.07-.71-.07-1.24v-1.28c0-.55.02-.85.07-1.21-.6.05-1.06.07-1.9.07h-5.06v-.46c0-.41.04-.69.11-1.06h-1.86c.07.39.11.67.11,1.08v.44h-4.68c-.83,0-1.29-.02-1.9-.07.05.39.07.71.07,1.21v1.28c0,.53-.02.83-.07,1.24Z"/>
  <path class="cls-1" d="m152.99,15.51c-2.02-1.15-3.41-2.43-4.38-4.04,1.01-.73,1.44-1.08,2.16-1.74.48-.44.58-.53.76-.67s.18-.14.27-.21l-1.4-1.1c-.44.67-1.35,1.56-2.48,2.39-.44-1.03-.69-1.74-.94-2.94h1.51c.66,0,1.19.04,1.74.09v-1.51c-.43.07-.83.09-1.74.09h-7.36c-.85,0-1.28-.02-1.74-.09v1.51c.55-.05,1.08-.09,1.74-.09h1.77c-1.38.9-3.05,1.51-5.61,2.04.41.48.6.78.85,1.35,1.86-.53,3.25-1.06,4.43-1.76.41.44.53.6.78.96-1.77,1.17-3.78,2-6.46,2.71.44.48.67.82.89,1.31,2.36-.69,4.33-1.6,6.21-2.87.21.46.3.69.46,1.19-1.9,1.56-4.84,2.98-7.66,3.72.39.46.6.74.94,1.37,3.03-1.06,5.22-2.2,7.08-3.64.04.37.05.58.05.92,0,1.52-.21,1.86-1.19,1.86-.59,0-1.37-.09-2.24-.27.27.6.34.9.43,1.61.75.07,1.47.11,1.97.11.96,0,1.49-.12,1.84-.41.5-.41.75-1.19.75-2.36,0-1.51-.32-2.89-1.03-4.49-.5-1.12-.85-1.65-1.63-2.48.46-.32.71-.51,1.14-.89h.62c.69,3.01,1.72,5.27,3.28,7.11.76.89,1.44,1.49,3,2.63.46-.64.8-1.05,1.19-1.42Z"/>
  <path class="cls-1" d="m158.84,13.31v2.68c0,.76-.04,1.26-.11,1.95h1.79c-.07-.55-.11-1.03-.11-1.93v-2.7h9.49v2.48c0,.46-.16.55-.94.55-.71,0-1.51-.05-2.36-.18.21.6.3.96.37,1.6.6.05,1.17.07,1.88.07,2.08,0,2.63-.34,2.63-1.65v-2.87h.12c.64,0,1.14.03,1.65.11v-1.63c-.48.07-.92.11-1.65.11h-.12v-4.77c0-.75.02-1.17.07-1.72-.44.05-.85.07-1.54.07h-4.17v-1.69h5.27c.71,0,1.42.04,2.04.11v-1.65c-.62.07-1.24.11-2.04.11h-11.83c-.82,0-1.51-.04-2.06-.11v1.65c.66-.07,1.28-.11,2.06-.11h5v1.69h-4.01c-.67,0-1.08-.02-1.51-.07.05.53.07,1.08.07,1.74v4.75h-.19c-.73,0-1.19-.04-1.69-.11v1.63c.51-.07,1.05-.11,1.67-.11h.21Zm7.01-6.46h4.06v1.79h-4.06v-1.79Zm0,3.14h4.06v1.9h-4.06v-1.9Zm-5.43-3.14h3.87v1.79h-3.87v-1.79Zm0,3.14h3.87v1.9h-3.87v-1.9Z"/>
  <path class="cls-1" d="m186.41,15.81v-4.1h3.28c.82,0,1.51.03,2.06.11v-1.69c-.57.07-1.19.11-2.08.11h-3.26v-3.48h3.99c.82,0,1.47.03,2.22.11v-1.69c-.71.07-1.38.11-2.25.11h-3.96v-1.56c0-.87.04-1.44.11-2.02h-1.93c.09.64.12,1.19.12,2.02v1.56h-3.19c.27-.71.44-1.21.53-1.47q.12-.43.34-1.01l-1.76-.44c-.04.5-.14.91-.37,1.65-.67,2.06-1.72,3.89-3.09,5.3.58.39.64.43,1.31,1.15.92-1.03,1.72-2.27,2.41-3.71h3.81v3.48h-2.94c-.92,0-1.49-.04-2.02-.11v1.69c.53-.07,1.21-.11,2.04-.11h2.93v4.1h-4.84c-.9,0-1.6-.04-2.31-.12v1.74c.78-.09,1.45-.12,2.36-.12h11.07c.92,0,1.47.04,2.27.12v-1.74c-.67.09-1.37.12-2.31.12h-4.54Z"/>
  <path class="cls-1" d="m205.15,9.78c0-1.03-.82-1.84-1.84-1.84s-1.84.83-1.84,1.84.83,1.84,1.84,1.84,1.84-.83,1.84-1.84Z"/>
  <path class="cls-1" d="m214.66,11.84c0,.62-.02,1.17-.05,1.74.28-.05.55-.05,1.31-.05h2.7c.62,0,.92.02,1.35.05-.04-.43-.05-.78-.05-1.56V3.77c0-.8,0-1.03.05-1.46-.44.04-.71.05-1.51.05h-2.29c-.69,0-1.1-.02-1.58-.05.05.41.07.94.07,1.56v7.96Zm1.45-8.09h2.36v1.93h-2.36v-1.93Zm0,3.23h2.36v1.92h-2.36v-1.92Zm0,3.21h2.36v1.95h-2.36v-1.95Z"/>
  <path class="cls-1" d="m221.28,4.58c0,.48-.02,1.15-.02,2.18-.04,5.11-.37,7.29-1.44,9.31-.37-.57-.82-1.4-1.17-2.27l-1.29.6c.57,1.35.89,1.95,1.49,2.93.32-.28.41-.35.66-.53.51.39.71.59,1.12,1.14.98-1.56,1.47-2.93,1.79-5.09.18-1.1.34-3.19.37-4.74h.32c.46,2.47,1.03,3.97,2.06,5.59-1.1,1.31-2.02,2.06-3.72,2.98.48.37.76.74,1.08,1.31,1.61-1.03,2.5-1.79,3.57-3.03.92,1.08,1.84,1.86,3.42,2.87.27-.6.55-1.05.96-1.52-1.37-.69-2.48-1.54-3.41-2.64.94-1.4,1.49-2.61,2.23-5.02.2-.6.27-.82.41-1.15l-.76-.89c-.3.07-.73.09-1.44.09h-4.68v-2.7h5.45c.78,0,1.33.02,1.84.09v-1.69c-.53.07-1.08.11-1.88.11h-5.07c-.74,0-1.35-.03-1.95-.09.05.6.07,1.24.07,1.93v.23Zm6.56,3.53c-.48,1.9-.9,2.96-1.72,4.27-.76-1.24-1.24-2.48-1.61-4.27h3.33Z"/>
  <path class="cls-1" d="m214.96,17.85c.9-1.06,1.31-1.81,1.88-3.37l-1.33-.66c-.53,1.42-.87,1.95-1.84,3.01.57.28.9.53,1.29,1.01Z"/>
  <path class="cls-1" d="m239.65,11.5c0,.5-.11,1.19-.28,1.67-.32.96-.98,1.65-2.2,2.32-.78.43-1.33.58-2.55.8.51.59.73.92,1.06,1.63,1.4-.43,1.97-.67,2.73-1.15,1.08-.71,1.79-1.49,2.27-2.48.28-.64.57-1.72.64-2.57.04-.39.05-.51.11-.76l-1.83-.07c.04.21.05.43.05.62Z"/>
  <path class="cls-1" d="m234.93,12.41h1.68v-2.18h11.9v2.18h1.72c-.05-.35-.07-.74-.07-1.26v-1.19c0-.55.02-.85.07-1.22-.59.05-1.05.07-1.88.07h-11.58c-.83,0-1.29-.02-1.84-.07.05.39.07.74.07,1.26v1.15c0,.51-.02.87-.07,1.26Z"/>
  <path class="cls-1" d="m241.65,4.78v1.44h-3.8c-.9,0-1.38-.02-1.83-.09v1.56c.5-.07.98-.09,1.83-.09h9.44c.92,0,1.29.02,1.83.09v-1.56c-.44.07-.92.09-1.83.09h-4.01v-1.44h5.02c.89,0,1.47.04,2.02.11v-1.61c-.44.07-1.1.11-2.06.11h-4.98v-.27c0-.71.02-1.1.11-1.47h-1.84c.09.44.11.8.11,1.47v.27h-4.66c-.98,0-1.63-.04-2.06-.11v1.61c.6-.09,1.12-.11,2.04-.11h4.68Z"/>
  <path class="cls-1" d="m248.55,15.69c-.21.27-.62.34-2.06.34-1.35,0-1.53-.07-1.53-.57v-3.16c0-.66.02-.98.09-1.38h-1.81c.07.35.09.71.09,1.45v3.74c0,1.21.48,1.42,3.12,1.42,1.93,0,2.77-.12,3.17-.5.46-.43.73-1.35.87-3.07-.6-.11-1.08-.27-1.58-.53-.09,1.42-.19,2-.37,2.25Z"/>
  <path class="cls-1" d="m5.47,64.16l12.08-14.42v13.81c0,.52.43.95.95.95h42.24c.52,0,.95-.43.95-.95v-13.81l12.08,14.42c.19.23.46.34.73.34.22,0,.43-.07.61-.22.4-.34.46-.94.12-1.34l-13.81-16.48s0,0,0,0l-20.55-24.54,6.73-8.03c.24-.28.29-.68.13-1.01-.16-.33-.49-.55-.86-.55h-14.47c-.37,0-.7.21-.86.55-.16.33-.1.73.13,1.01l6.73,8.03-20.55,24.54s0,0,0,0l-13.81,16.48c-.34.4-.28,1,.12,1.34.4.34,1,.29,1.34-.12Zm40.56-17.99h-12.82v-14.53h12.82v14.53Zm-14.72,0h-10.77l10.77-12.86v12.86Zm-11.86,1.9h11.86v14.53h-11.86v-14.53Zm13.76,14.53v-14.53h12.82v14.53h-12.82Zm26.58,0h-11.86v-14.53h11.86v14.53Zm-11.86-16.43v-12.86l10.77,12.86h-10.77Zm-13.51-31.95h10.4l-5.2,6.21-5.2-6.21Zm5.2,9.17l5.32,6.35h-10.64l5.32-6.35Z"/>
  <path class="cls-1" d="m78.89,0H.95C.43,0,0,.43,0,.95v74.39c0,.52.43.95.95.95h77.94c.52,0,.95-.43.95-.95V.95c0-.52-.43-.95-.95-.95Zm-.95,74.39H1.9V1.9h76.04v72.49Z"/>
</svg>
